<svg viewBox="238 142 619 513" xmlns="http://www.w3.org/2000/svg" role="img" aria-label="Codebrief">
  <path fill="#393833" d="
M497.112244,235.111145
	C521.265503,212.268173 546.117737,190.834839 574.520996,173.997833
	C590.613892,164.458252 607.267334,156.089783 626.395020,154.279388
	C646.675476,152.359879 662.401794,160.756119 670.125916,178.581604
	C675.571106,191.147842 678.188904,204.332077 679.064087,217.825836
	C680.933594,246.649643 679.124512,275.388519 676.462769,304.106506
	C672.286560,349.164124 665.477295,393.896210 660.080994,438.802338
	C658.116394,455.151245 655.589539,471.432953 654.967224,487.916138
	C654.659119,496.076904 656.520325,497.488403 663.923279,494.022858
	C691.230103,481.239716 718.494263,468.354889 746.684937,457.603302
	C766.776245,449.940704 787.083191,442.963623 808.751465,441.118103
	C815.977600,440.502655 823.100525,440.815979 830.007996,443.016418
	C841.789551,446.769531 847.181885,456.555603 844.763672,469.444183
	C841.973267,484.316772 834.051514,496.781403 825.000977,508.299133
	C791.454712,550.989990 752.519531,588.205505 708.683838,620.232239
	C696.249756,629.316711 682.840149,636.734192 667.707214,640.475647
	C646.748657,645.657349 632.379211,636.846375 627.537720,615.819275
	C624.544250,602.817993 625.272217,589.631958 626.241272,576.517456
	C627.172485,563.915833 629.128235,551.422119 631.476807,538.989197
	C632.798828,531.990845 629.589478,529.458618 622.881897,532.447998
	C605.692200,540.108948 588.702026,548.216370 571.541870,555.944885
	C516.719666,580.635559 461.910858,605.364502 404.570129,623.874023
	C378.217926,632.380493 351.511902,639.474609 323.860718,641.902039
	C308.249847,643.272461 292.566162,643.107422 277.485840,637.464600
	C260.896210,631.257080 251.006119,617.275330 250.660522,599.651367
	C250.258438,579.146790 256.827820,560.302307 264.512421,541.813599
	C279.316162,506.196747 300.450592,474.192444 322.425476,442.766815
	C356.733246,393.704346 393.918549,346.879059 433.358673,301.838318
	C453.567963,278.759216 474.439178,256.321564 497.112244,235.111145
z"/>
</svg>
